<svg width="16" height="16" viewBox="0 0 16 16" fill="none" xmlns="http://www.w3.org/2000/svg">
<g id="sort">
<path id="Vector" d="M5.5 12H2.5C2.35556 12 2.23611 11.9528 2.14167 11.8583C2.04722 11.7639 2 11.6444 2 11.5C2 11.3556 2.04722 11.2361 2.14167 11.1417C2.23611 11.0472 2.35556 11 2.5 11H5.5C5.64444 11 5.76389 11.0472 5.85833 11.1417C5.95278 11.2361 6 11.3556 6 11.5C6 11.6444 5.95278 11.7639 5.85833 11.8583C5.76389 11.9528 5.64444 12 5.5 12ZM13.5 5H2.5C2.35556 5 2.23611 4.95278 2.14167 4.85833C2.04722 4.76389 2 4.64444 2 4.5C2 4.35556 2.04722 4.23611 2.14167 4.14167C2.23611 4.04722 2.35556 4 2.5 4H13.5C13.6444 4 13.7639 4.04722 13.8583 4.14167C13.9528 4.23611 14 4.35556 14 4.5C14 4.64444 13.9528 4.76389 13.8583 4.85833C13.7639 4.95278 13.6444 5 13.5 5ZM9.5 8.5H2.5C2.35556 8.5 2.23611 8.45278 2.14167 8.35833C2.04722 8.26389 2 8.14444 2 8C2 7.85556 2.04722 7.73611 2.14167 7.64167C2.23611 7.54722 2.35556 7.5 2.5 7.5H9.5C9.64444 7.5 9.76389 7.54722 9.85833 7.64167C9.95278 7.73611 10 7.85556 10 8C10 8.14444 9.95278 8.26389 9.85833 8.35833C9.76389 8.45278 9.64444 8.5 9.5 8.5Z" fill="#DC0A2D"/>
</g>
</svg>
